inDegrees=yes
name=ik_S44_A08_T02
DataType=double
version=3
OpenSimVersion=4.3-2021-08-27-4bc7ad9
endheader
time	pelvis_tilt	pelvis_list	pelvis_rotation	pelvis_tx	pelvis_ty	pelvis_tz	hip_flexion_r	hip_adduction_r	hip_rotation_r	knee_angle_r	knee_angle_r_beta	ankle_angle_r	subtalar_angle_r	mtp_angle_r	hip_flexion_l	hip_adduction_l	hip_rotation_l	knee_angle_l	knee_angle_l_beta	ankle_angle_l	subtalar_angle_l	mtp_angle_l	lumbar_extension	lumbar_bending	lumbar_rotation	arm_flex_r	arm_add_r	arm_rot_r	elbow_flex_r	pro_sup_r	wrist_flex_r	wrist_dev_r	arm_flex_l	arm_add_l	arm_rot_l	elbow_flex_l	pro_sup_l	wrist_flex_l	wrist_dev_l
0	0	0	0	0	0.9399999999999999	0	0	0	0	0	0	0	0	0	0	0	0	0	0	0	0	0	0	0	0	0	0	0	0	89.99999999963507	0	0	0	0	0	0	89.99999999869995	0	0
0.02	-14.11143592348806	-2.218851336234635	29.16074699069106	0	0.9399999999999999	0	2.739563808104049	-1.299078575043853	-0.9231945825511313	4.231802748515881	0.07385889125654771	0	0	0	2.739563808104049	-1.299078575043853	-0.9231945825511313	4.231802748515881	0.07385889125654771	0	0	0	-7.169383200007202	-5.310790209521685	8.251723108306345	37.65639218912641	-3.607723811935179	-0.3170514068298683	42.83974035679057	132.9826131366701	0	0	33.39240620826395	8.578654782432396	-6.01988365054283	47.18606731936799	125.8328661762524	0	0
0.04	-10.86594473970795	-3.344400941130924	34.25145427049397	0	0.9399999999999999	0	30.02849976764824	-10.9328154228221	-9.583016041255538	30.63376035456983	0.5346599804541491	0	0	0	30.02849976764824	-10.9328154228221	-9.583016041255538	30.63376035456983	0.5346599804541491	0	0	0	-9.627898525871078	-1.940751458247157	3.753358798482373	37.65142194506585	-3.617355991115723	-0.3098262392348855	42.86536782364872	132.9778321522014	0	0	33.39704237053562	8.581456727915795	-6.029649915039577	47.19580828105102	125.8170431993306	0	0
0.06	-10.85590042057312	-3.344379669795525	34.26028316805266	0	0.9399999999999999	0	30.05243888716019	-10.9262761154382	-9.584699503358914	30.66110686248688	0.5351372670562243	0	0	0	30.05243888716019	-10.9262761154382	-9.584699503358914	30.66110686248688	0.5351372670562243	0	0	0	-9.620954067625382	-1.94070344245752	3.748800067684336	37.66652957320376	-3.625219907265614	-0.260702956793964	42.81099259291918	132.9595889918936	0	0	33.42286124241883	8.61724149461882	-6.03547157820748	47.16810107593473	125.8227022509631	0	0
0.08	-10.84419894151061	-3.344216613871235	34.26520879499204	0	0.9399999999999999	0	30.08165387625656	-10.92003631918956	-9.586481169138725	30.69548033955451	0.5357371974064132	0	0	0	30.08165387625656	-10.92003631918956	-9.586481169138725	30.69548033955451	0.5357371974064132	0	0	0	-9.61309497807418	-1.939185502616537	3.739892210012491	37.64899271390512	-3.614379578850541	-0.2551784981518709	42.78504264474089	132.9401239990004	0	0	33.42059257146854	8.619826703254864	-6.06434399135127	47.14769871811776	125.8386994148489	0	0
0.1	-10.829580291192	-3.337334956650535	34.28217893817751	0	0.9399999999999999	0	30.08674917875926	-10.91898134343758	-9.586785207290031	30.70167947382495	0.5358453927102056	0	0	0	30.08674917875926	-10.91898134343758	-9.586785207290031	30.70167947382495	0.5358453927102056	0	0	0	-9.59784943038011	-1.938610845175511	3.728485034207791	37.67824813145958	-3.653218997509355	-0.1265456033510756	42.70943093663108	132.8048040615781	0	0	33.4199244019993	8.626676193418648	-6.080662264858699	47.13183902621346	125.8487024839742	0	0
0.12	-10.82535930134651	-3.334110010965704	34.30547224791837	0	0.9399999999999999	0	30.10638041096965	-10.91518449098231	-9.58791581063489	30.72509603304837	0.5362540887681425	0	0	0	30.10638041096965	-10.91518449098231	-9.58791581063489	30.72509603304837	0.5362540887681425	0	0	0	-9.593327839729666	-1.935136714950207	3.734347171652002	37.68706338440625	-3.671807787095251	-0.1310277542515045	42.66131038083635	132.7836316416088	0	0	33.41380758314509	8.642623780710855	-6.046998476930349	47.12491702667048	125.8566812628907	0	0
0.14	-10.81459468561392	-3.332980446122868	34.30615034828195	0	0.9399999999999999	0	30.10436054050117	-10.91423320260116	-9.588004409694648	30.72213990312997	0.5362024945679498	0	0	0	30.10436054050117	-10.91423320260116	-9.588004409694648	30.72213990312997	0.5362024945679498	0	0	0	-9.583563974764504	-1.941366322572213	3.735021258513142	37.69773830070422	-3.671901234530239	-0.1487745367589136	42.64656327319878	132.7756140527115	0	2.611182523027702e-51	33.41648086904027	8.639379191004979	-6.05604502633462	47.11491162388813	125.8641862298333	0	2.611182523027702e-51
0.16	-10.80153898160621	-3.332905952008129	34.31839915248487	0	0.9399999999999999	0	30.11929691123344	-10.91079362576887	-9.588950553008408	30.73960361865874	0.5365072939035584	0	0	0	30.11929691123344	-10.91079362576887	-9.588950553008408	30.73960361865874	0.5365072939035584	0	0	0	-9.573745428092064	-1.944316357896886	3.72827261762734	37.74595888506835	-3.659238381242468	-0.100940695799713	42.58002861319996	132.7603250873471	0	0	33.4000056122728	8.634370253713849	-6.039345113473727	47.09486329559375	125.8593940529164	0	0
0.18	-10.79073509305472	-3.325951290898451	34.31996286059748	0	0.9399999999999999	0	30.11953595083639	-10.90945387667431	-9.589167426380051	30.73911504999624	0.5364987667717757	0	0	0	30.11953595083639	-10.90945387667431	-9.589167426380051	30.73911504999624	0.5364987667717757	0	0	0	-9.561008231371547	-1.944298291121046	3.724564591738701	37.73384789542174	-3.645937997398034	-0.1007630172143999	42.53326123968675	132.7622182805774	0	0	33.43328641287106	8.647223628008296	-6.071821510064773	47.06545852871216	125.8608128318637	0	0
0.2	-10.77993919197397	-3.322866087540965	34.31639483721479	0	0.9399999999999999	0	30.11870416895182	-10.90846475153902	-9.589296755679127	30.73763357723235	0.5364729101942672	0	0	0	30.11870416895182	-10.90846475153902	-9.589296755679127	30.73763357723235	0.5364729101942672	0	0	0	-9.55033100759028	-1.947981248067056	3.722135296891989	37.74341170707693	-3.641385224203198	-0.09157292023442851	42.50450017530249	132.7615878587636	0	0	33.42321349590424	8.642767943712437	-6.07151231551402	47.03903240824014	125.854072150613	0	0
0.22	-10.77083266442063	-3.32158736410168	34.31751539701039	0	0.9399999999999999	0	30.12955268487196	-10.90537979031133	-9.590073332068403	30.75038207600537	0.5366954134725429	0	0	0	30.12955268487196	-10.90537979031133	-9.590073332068403	30.75038207600537	0.5366954134725429	0	0	0	-9.542703102408787	-1.949464744918488	3.718704781686156	37.75858136937679	-3.648517713753954	-0.07194640924208859	42.45057147088482	132.727024122992	0	0	33.42570071089881	8.631898032984287	-6.068949102142574	47.01381192410994	125.8008102480385	0	0
0.24	-10.74803614030114	-3.318828621018528	34.32830359158022	0	0.9399999999999999	0	30.15619561386437	-10.90043919011502	-9.59157599694654	30.78241557304829	0.5372545034668696	0	0	0	30.15619561386437	-10.90043919011502	-9.59157599694654	30.78241557304829	0.5372545034668696	0	0	0	-9.524253294837983	-1.951698223649141	3.705146140090577	37.76583870227063	-3.613653843928975	-0.01344197454588288	42.38813761964065	132.6661666756055	0	0	33.39047890664128	8.621005363200156	-6.050321197376096	47.01180294191106	125.7771705026667	0	0
0.26	-10.73854786747141	-3.328675189637033	34.32730118069553	0	0.9399999999999999	0	30.18154315938884	-10.89384187978062	-9.593311909509872	30.81169146060472	0.537765464096173	0	0	0	30.18154315938884	-10.89384187978062	-9.593311909509872	30.81169146060472	0.537765464096173	0	0	0	-9.523908658561343	-1.956921473359831	3.689190901953233	37.79371230118629	-3.60755668133721	0.04323711114682451	42.31984101247181	132.5927174008871	0	0	33.41369623937222	8.608923025304222	-6.074502809471087	46.98537662862344	125.805134117868	0	0
0.28	-10.72822960495321	-3.327109055548293	34.33135475812927	0	0.9399999999999999	0	30.1972072991112	-10.89014874968921	-9.594319432934258	30.83017298423529	0.5380880275343117	0	0	0	30.1972072991112	-10.89014874968921	-9.594319432934258	30.83017298423529	0.5380880275343117	0	0	0	-9.515461928190179	-1.957181121409103	3.683749860874893	37.81440808899263	-3.597452671440956	0.0838427498358145	42.29926598595151	132.5639659670254	0	0	33.38467996607869	8.61138939118711	-6.057695660799483	46.98597967988563	125.7942762686747	0	0
0.3	-10.71784405693018	-3.325249861111436	34.33050974321754	0	0.9399999999999999	0	30.2034111535681	-10.88757263028817	-9.594897288400574	30.83663118383549	0.5382007443810861	0	0	0	30.2034111535681	-10.88757263028817	-9.594897288400574	30.83663118383549	0.5382007443810861	0	0	0	-9.506139258891187	-1.960131016469114	3.6813381808877	37.80757797616867	-3.600119971072424	0.08568593631288002	42.23532694652762	132.5658670398134	0	0	33.39658572336739	8.630036785226299	-6.074672273405155	46.97007451658376	125.8198333419103	0	0
0.32	-10.70483271301645	-3.327789203349765	34.32387310297542	0	0.9399999999999999	0	30.22602201144759	-10.88246502209196	-9.596319394016868	30.86345230482845	0.5386688612514891	0	0	0	30.22602201144759	-10.88246502209196	-9.596319394016868	30.86345230482845	0.5386688612514891	0	0	0	-9.498064155901805	-1.964043132939652	3.67604003003261	37.80010136983051	-3.573047632520835	0.09809668422956438	42.22071669861784	132.5232151471104	0	0	33.37159822428927	8.624824741505231	-6.069134168452307	46.97804565686564	125.7962850909921	0	0
0.34	-10.69957296261808	-3.327740667490237	34.3251220848487	0	0.9399999999999999	0	30.2282964612763	-10.88109360920576	-9.596593391849238	30.86582825148015	0.538710329343413	0	0	0	30.2282964612763	-10.88109360920576	-9.596593391849238	30.86582825148015	0.538710329343413	0	0	0	-9.493700215063592	-1.966938519991719	3.676647692519164	37.81323221386295	-3.592224908452093	0.1112206667016979	42.19724286910755	132.5181405894015	0	0	33.37862069397584	8.617433437459503	-6.055490699002798	46.96787831673407	125.8011830864043	0	0
0.36	-10.69266325037502	-3.327683887304967	34.32316139376961	0	0.9399999999999999	0	30.25085723119134	-10.87774477391783	-9.597736950737771	30.89337236127711	0.5391910647489008	0	0	0	30.25085723119134	-10.87774477391783	-9.597736950737771	30.89337236127711	0.5391910647489008	0	0	0	-9.489072812488157	-1.966107425730679	3.678910549337862	37.80977855246535	-3.592015984770676	0.1162267014536268	42.15306434128944	132.4753571459035	0	0	33.36659137982743	8.6336263862311	-6.050628463253423	46.95845479651256	125.7896486241733	0	0
0.3800000000000001	-10.6770676671515	-3.330509283546203	34.31714292028551	0	0.9399999999999999	0	30.25810083877184	-10.87552628261509	-9.598280591761503	30.9017762021448	0.5393377394418556	0	0	0	30.25810083877184	-10.87552628261509	-9.598280591761503	30.9017762021448	0.5393377394418556	0	0	0	-9.477940712960107	-1.97639291430207	3.679565553536531	37.81892045073864	-3.618298602054928	0.08486431495456205	42.1356353950458	132.4521334355832	0	0	33.3499467442886	8.602280471565216	-6.06697292365309	46.95110317031127	125.790063823535	0	0
0.4000000000000001	-10.65652776039231	-3.330449332684381	34.32251358228473	0	0.9399999999999999	0	30.2786395913524	-10.8710635392458	-9.59954632197072	30.92599505387554	0.5397604381456093	0	0	0	30.2786395913524	-10.8710635392458	-9.59954632197072	30.92599505387554	0.5397604381456093	0	0	0	-9.462070912957017	-1.982820166573735	3.67412931391629	37.79838873735727	-3.606636754282678	0.1234365460728472	42.075062920686	132.4170850166926	0	0	33.33347630513885	8.616532779648329	-6.04777424151751	46.94313326405785	125.7987634272414	0	0
